<svg xmlns="http://www.w3.org/2000/svg" xmlns:xlink="http://www.w3.org/1999/xlink" version="1.1" x="0px" y="0px" viewBox="0 0 64 80" style="enable-background:new 0 0 64 64;" xml:space="preserve"><path d="M55.5,7.9h-6V5.2c0-1.4-1.1-2.5-2.5-2.5s-2.5,1.1-2.5,2.5v2.7h-25V5.2c0-1.4-1.1-2.5-2.5-2.5s-2.5,1.1-2.5,2.5v2.7h-6  C4.9,7.9,2,10.8,2,14.4v40.1C2,58.1,4.9,61,8.5,61h47.1c3.6,0,6.5-2.9,6.5-6.5V14.4C62,10.8,59.1,7.9,55.5,7.9z M8.5,12.9h6v1.6  c0,1.4,1.1,2.5,2.5,2.5s2.5-1.1,2.5-2.5v-1.6h25v1.6c0,1.4,1.1,2.5,2.5,2.5s2.5-1.1,2.5-2.5v-1.6h6c0.8,0,1.5,0.7,1.5,1.5v4.8H7  v-4.8C7,13.6,7.6,12.9,8.5,12.9z M55.5,56H8.5C7.6,56,7,55.4,7,54.5V24.2H57v30.3C57,55.4,56.3,56,55.5,56z M48.4,32.8  c0,1.4-1.1,2.5-2.5,2.5H33.6c-1.4,0-2.5-1.1-2.5-2.5s1.1-2.5,2.5-2.5h12.3C47.2,30.3,48.4,31.4,48.4,32.8z M28.6,27.6  c1,1,0.9,2.6,0,3.5l-6.1,6c-0.5,0.5-1.1,0.7-1.7,0.7c-0.6,0-1.3-0.2-1.7-0.7l-2.6-2.6c-1-1-1-2.5,0-3.5c1-1,2.5-1,3.5,0l0.9,0.9  l4.4-4.3C26.1,26.6,27.7,26.6,28.6,27.6z M48.4,48.2c0,1.4-1.1,2.5-2.5,2.5H33.6c-1.4,0-2.5-1.1-2.5-2.5s1.1-2.5,2.5-2.5h12.3  C47.2,45.7,48.4,46.8,48.4,48.2z M28.6,43c1,1,0.9,2.6,0,3.5l-6.1,6c-0.5,0.5-1.1,0.7-1.7,0.7c-0.6,0-1.3-0.2-1.7-0.7L16.3,50  c-1-1-1-2.5,0-3.5c1-1,2.5-1,3.5,0l0.9,0.9l4.4-4.3C26.1,42,27.7,42,28.6,43z"/><text x="0" y="79" fill="#000000" font-size="5px" font-weight="bold" font-family="'Helvetica Neue', Helvetica, Arial-Unicode, Arial, Sans-serif">Created by nico bayu saputro</text><text x="0" y="84" fill="#000000" font-size="5px" font-weight="bold" font-family="'Helvetica Neue', Helvetica, Arial-Unicode, Arial, Sans-serif">from the Noun Project</text></svg>