<svg xmlns="http://www.w3.org/2000/svg" xmlns:xlink="http://www.w3.org/1999/xlink" version="1.1" x="0px" y="0px" viewBox="0 0 100 125" style="enable-background:new 0 0 100 100;" xml:space="preserve"><g><path d="M70.5,26.9c-7.6,8.8-15.2,17.5-22.8,26.3c-1.7,1.9-3.4,3.9-5.1,5.8c-0.3,0.3-1.2,1.2-2,2c-1.4-1.6-4-3.4-5-4.5   c-2.1-2.2-4.2-4.5-6.3-6.9c-5.1-5.8-13.5,2.7-8.5,8.5c4.4,5,9.1,11,14.6,14.7c6,4,10.3,0.7,14.3-4C59.6,57.7,69.3,46.6,79,35.4   C84,29.6,75.6,21,70.5,26.9z"/></g><text x="0" y="115" fill="#000000" font-size="5px" font-weight="bold" font-family="'Helvetica Neue', Helvetica, Arial-Unicode, Arial, Sans-serif">Created by Acharyas</text><text x="0" y="120" fill="#000000" font-size="5px" font-weight="bold" font-family="'Helvetica Neue', Helvetica, Arial-Unicode, Arial, Sans-serif">from the Noun Project</text></svg>