<svg xmlns="http://www.w3.org/2000/svg" viewBox="0 0 32 40" fill="none" x="0px" y="0px"><path fill-rule="evenodd" clip-rule="evenodd" d="M20.3657 5.29289C20.7562 4.90237 21.3894 4.90237 21.7799 5.29289L25.7378 9.25077C25.9253 9.43831 26.0307 9.69266 26.0307 9.95788C26.0307 10.2231 25.9253 10.4774 25.7378 10.665L23.5637 12.839C23.1732 13.2296 22.54 13.2296 22.1495 12.839L18.1916 8.88116C18.0041 8.69363 17.8987 8.43927 17.8987 8.17406C17.8987 7.90884 18.0041 7.65449 18.1916 7.46695L20.3657 5.29289ZM20.3129 8.17406L22.8566 10.7177L23.6164 9.95788L21.0728 7.41421L20.3129 8.17406ZM16.7985 9.19401C17.0644 9.19349 17.3196 9.29889 17.5076 9.4869L21.5282 13.5075C21.7162 13.6955 21.8216 13.9507 21.8211 14.2166C21.8206 14.4825 21.7142 14.7372 21.5255 14.9245L11.4345 24.9367C11.2875 25.0826 11.0988 25.1792 10.8946 25.2132L6.16441 26.0016C5.84585 26.0547 5.52127 25.9507 5.29291 25.7223C5.06454 25.4939 4.96053 25.1693 5.01362 24.8508L5.80198 20.1206C5.83602 19.9164 5.93264 19.7277 6.0785 19.5807L16.0906 9.48968C16.2779 9.30093 16.5326 9.19453 16.7985 9.19401ZM16.8033 11.611L7.72244 20.7634L7.21656 23.7986L10.2518 23.2928L19.4041 14.2119L16.8033 11.611Z" fill="black"/><text x="0" y="47" fill="#000000" font-size="5px" font-weight="bold" font-family="'Helvetica Neue', Helvetica, Arial-Unicode, Arial, Sans-serif">Created by Anarappi</text><text x="0" y="52" fill="#000000" font-size="5px" font-weight="bold" font-family="'Helvetica Neue', Helvetica, Arial-Unicode, Arial, Sans-serif">from the Noun Project</text></svg>