<svg xmlns="http://www.w3.org/2000/svg" viewBox="0 0 512 640" x="0px" y="0px"><title>Task</title><g><path d="M357,236a15,15,0,0,1-15,15H170a15,15,0,0,1,0-30H342A15,15,0,0,1,357,236Zm-26,45H181a15,15,0,0,0,0,30H331a15,15,0,0,0,0-30Zm-32,60H213a15,15,0,0,0,0,30h86a15,15,0,0,0,0-30ZM423,185.1621V365.8379A92.2664,92.2664,0,0,1,330.8379,458H181.1621A92.2665,92.2665,0,0,1,89,365.8379V185.1621A92.2665,92.2665,0,0,1,181.1621,93h31.0742a43,43,0,0,1,85.5274,0h33.0742A92.2665,92.2665,0,0,1,423,185.1621ZM192,161H317V123H192Zm50.8193-68h24.3614a12.9776,12.9776,0,0,0-24.3614,0ZM393,185.1621a62.2646,62.2646,0,0,0-46-60.0181V176a15,15,0,0,1-15,15H177a15,15,0,0,1-15-15V126.0356a62.2631,62.2631,0,0,0-43,59.1265V365.8379A62.2324,62.2324,0,0,0,181.1621,428H330.8379A62.2324,62.2324,0,0,0,393,365.8379Z"/></g><text x="0" y="527" fill="#000000" font-size="5px" font-weight="bold" font-family="'Helvetica Neue', Helvetica, Arial-Unicode, Arial, Sans-serif">Created by The Icon Z</text><text x="0" y="532" fill="#000000" font-size="5px" font-weight="bold" font-family="'Helvetica Neue', Helvetica, Arial-Unicode, Arial, Sans-serif">from the Noun Project</text></svg>